<svg width="25" height="25" viewBox="0 0 25 25" fill="none" xmlns="http://www.w3.org/2000/svg">
<g clip-path="url(#clip0_2_358)">
<path d="M12.3372 0.43787C15.4371 0.443436 18.2516 1.66498 20.3296 3.65077L22.0002 1.98017C22.7074 1.27289 23.9167 1.77378 23.9167 2.77398V9.0449C23.9167 9.66494 23.4141 10.1676 22.794 10.1676H16.5231C15.5229 10.1676 15.022 8.95832 15.7292 8.25104L17.6822 6.29809C16.2385 4.94627 14.3703 4.19746 12.3856 4.18034C8.06347 4.14301 4.42022 7.64079 4.45759 12.1064C4.49305 16.3426 7.92744 19.8972 12.3159 19.8972C14.2397 19.8972 16.058 19.2106 17.4909 17.9534C17.7127 17.7587 18.0478 17.7706 18.2565 17.9792L20.1118 19.8345C20.3397 20.0624 20.3284 20.434 20.0893 20.65C18.0322 22.508 15.3062 23.6394 12.3159 23.6394C5.909 23.6394 0.71517 18.4456 0.715124 12.0387C0.715076 5.63918 5.93763 0.426409 12.3372 0.43787Z" fill="#192A32"/>
</g>
<defs>
<clipPath id="clip0_2_358">
<rect width="23.95" height="23.95" fill="white" transform="matrix(-1 0 0 1 24.2909 0.0636444)"/>
</clipPath>
</defs>
</svg>
