<svg width="25" height="25" viewBox="0 0 25 25" fill="none" xmlns="http://www.w3.org/2000/svg">
<path fill-rule="evenodd" clip-rule="evenodd" d="M17.3445 12.4232L24.3926 5.3745C24.9949 4.77214 24.9949 3.79552 24.3926 3.19316L21.7362 0.536579C21.1339 -0.0657809 20.1574 -0.0657799 19.5551 0.53658L12.507 7.58531L5.45879 0.536525C4.85648 -0.0658354 3.87995 -0.0658349 3.27764 0.536525L0.621289 3.19311C0.0189811 3.79547 0.0189822 4.77209 0.62129 5.37445L7.66946 12.4232L0.621225 19.4721C0.0189174 20.0744 0.0189179 21.0511 0.621226 21.6534L3.27758 24.31C3.87989 24.9124 4.85642 24.9124 5.45873 24.31L12.507 17.2612L19.5551 24.3099C20.1575 24.9123 21.134 24.9123 21.7363 24.3099L24.3927 21.6534C24.995 21.051 24.995 20.0744 24.3927 19.472L17.3445 12.4232Z" fill="#2DC2C0"/>
</svg>
